<!DOCTYPE svg PUBLIC "-//W3C//DTD SVG 1.1//EN" "http://www.w3.org/Graphics/SVG/1.1/DTD/svg11.dtd">

<!-- Uploaded to: SVG Repo, www.svgrepo.com, Transformed by: SVG Repo Mixer Tools -->
<svg width="20px" height="20px" viewBox="0 0 24 24" xmlns="http://www.w3.org/2000/svg" fill="#ffffff" stroke="#ffffff">

<g id="SVGRepo_bgCarrier" stroke-width="0"/>

<g id="SVGRepo_tracerCarrier" stroke-linecap="round" stroke-linejoin="round"/>

<g id="SVGRepo_iconCarrier"> <defs> <style>.cls-1,.cls-2{fill:none;stroke:#ffffff;stroke-linecap:round;stroke-width:1.5px;}.cls-1{stroke-linejoin:bevel;}.cls-2{stroke-linejoin:round;}</style> </defs> <g id="ic-actions-emultiple-edit"> <path class="cls-1" d="M19.94,11.3V17a2,2,0,0,1-2,2H7.72a2,2,0,0,1-2-2V4a2,2,0,0,1,2-2h5.9"/> <path class="cls-1" d="M16.73,19v1.2a2,2,0,0,1-2,2H4.52a2,2,0,0,1-2-2V6.23a2,2,0,0,1,2-2h1.2"/> <path class="cls-2" d="M19.3,2.25a1,1,0,0,0-1.42,0l-6,6h0l-.1,3a.21.21,0,0,0,.23.22l3-.1h0l6-6A1,1,0,0,0,21,4Z"/> </g> </g>

</svg>