<!DOCTYPE svg PUBLIC "-//W3C//DTD SVG 1.1//EN" "http://www.w3.org/Graphics/SVG/1.1/DTD/svg11.dtd">

<!-- Uploaded to: SVG Repo, www.svgrepo.com, Transformed by: SVG Repo Mixer Tools -->
<svg version="1.1" id="_x35_" xmlns="http://www.w3.org/2000/svg" xmlns:xlink="http://www.w3.org/1999/xlink" viewBox="0 0 512 512" xml:space="preserve" width="200px" height="200px" fill="#000000">

<g id="SVGRepo_bgCarrier" stroke-width="0"/>

<g id="SVGRepo_tracerCarrier" stroke-linecap="round" stroke-linejoin="round"/>

<g id="SVGRepo_iconCarrier"> <g> <g> <g> <g> <polygon style="fill:#202020;" points="139.735,106.285 139.735,301.466 0,301.466 0,63.617 "/> <rect x="19.961" y="146.593" style="fill:#C1D7D9;" width="99.827" height="19.732"/> <rect x="29.028" y="187.124" style="fill:#C1D7D9;" width="81.694" height="19.732"/> <rect x="48.543" y="259.867" style="fill:#C1D7D9;" width="42.665" height="41.598"/> </g> <g> <polygon style="fill:#202020;" points="372.273,301.465 512,301.465 512,63.609 372.273,106.274 "/> <rect x="392.223" y="146.593" style="fill:#C1D7D9;" width="99.827" height="19.732"/> <rect x="401.289" y="187.124" style="fill:#C1D7D9;" width="81.694" height="19.732"/> <rect x="420.804" y="259.867" style="fill:#C1D7D9;" width="42.665" height="41.598"/> </g> </g> <g> <polygon style="fill:#202020;" points="348.813,56.634 348.813,315.922 163.199,315.922 163.199,0 266.969,31.634 326.886,49.93 "/> <g> <rect x="238.296" y="101.988" style="fill:#C1D7D9;" width="32.585" height="32.585"/> <rect x="185.876" y="101.988" style="fill:#C1D7D9;" width="32.585" height="32.585"/> <rect x="293.55" y="101.988" style="fill:#C1D7D9;" width="32.585" height="32.585"/> </g> <rect x="189.707" y="160.075" style="fill:#C1D7D9;" width="132.597" height="26.21"/> <rect x="201.75" y="213.912" style="fill:#C1D7D9;" width="108.512" height="26.21"/> <rect x="227.671" y="260.665" style="fill:#C1D7D9;" width="56.67" height="55.253"/> </g> </g> <polygon style="fill:#C1D7D9;" points="139.738,301.465 139.738,274.218 112.491,301.465 "/> <g style="opacity:0.04;"> <polygon style="fill:#040000;" points="372.273,301.465 420.804,301.465 463.469,301.465 512,301.465 512,63.609 372.273,106.274 "/> <polygon style="fill:#040000;" points="163.208,250.748 163.208,315.918 227.67,315.918 284.341,315.918 348.803,315.918 348.803,65.153 "/> </g> </g> </g>

</svg>