<svg width="20" height="20" viewBox="0 0 20 20" fill="none" xmlns="http://www.w3.org/2000/svg">
<g clip-path="url(#clip0_2036_1509)">
<path d="M19.6666 15.423V15.3333C19.6666 14.2303 18.7696 13.3333 17.6666 13.3333H16.3333C15.2303 13.3333 14.3333 14.2303 14.3333 15.3333V15.423C14.134 15.5384 14 15.7537 14 16V16.6667C14 16.918 14.14 17.1377 14.346 17.251C14.4097 17.8917 14.6884 18.4557 14.7017 18.4823C15.0039 19.0867 15.4606 20 17 20C18.5393 20 18.996 19.0867 19.2983 18.4823C19.3116 18.4557 19.5903 17.8917 19.6539 17.251C19.86 17.1377 20 16.918 20 16.6667V16C20 15.7537 19.866 15.5383 19.6666 15.423ZM19.3333 16.6667C19.1489 16.6667 19 16.816 19 17C19 17.5767 18.7046 18.1787 18.7016 18.1843C18.3546 18.8783 18.0486 19.3333 17 19.3333C15.9513 19.3333 15.6453 18.8783 15.2986 18.1846C15.2953 18.1787 15 17.5767 15 17C15 16.816 14.851 16.6667 14.6666 16.6667V16C14.851 16 15 15.8507 15 15.6667V15.3334C15 14.598 15.598 14 16.3333 14H17.6666C18.402 14 18.9999 14.598 18.9999 15.3334V15.6667C18.9999 15.8507 19.1489 16 19.3332 16V16.6667H19.3333Z" fill="white" fill-opacity="0.8"/>
<path d="M7.34598 3.91766C7.40965 4.55832 7.68832 5.1223 7.70164 5.14898C8.00398 5.75332 8.46062 6.66664 9.99996 6.66664C11.5393 6.66664 11.996 5.75332 12.2983 5.14898C12.3116 5.1223 12.5903 4.55832 12.6539 3.91766C12.86 3.80434 13 3.58465 13 3.33332V2.66668C13 2.42035 12.866 2.205 12.6666 2.08969V2C12.6666 0.896992 11.7696 0 10.6666 0H9.33332C8.23031 0 7.33332 0.896992 7.33332 2V2.08965C7.13398 2.205 7 2.42031 7 2.66664V3.33332C6.99996 3.58465 7.13996 3.80434 7.34598 3.91766ZM7.66664 2.66668C7.85098 2.66668 7.99996 2.51734 7.99996 2.33336V2C7.99996 1.26465 8.59797 0.66668 9.33328 0.66668H10.6666C11.402 0.66668 11.9999 1.26469 11.9999 2V2.33332C11.9999 2.5173 12.1489 2.66664 12.3332 2.66664V3.33332C12.1489 3.33332 11.9999 3.48266 11.9999 3.66664C11.9999 4.24332 11.7046 4.84531 11.7016 4.85098C11.3546 5.545 11.0486 6 9.99996 6C8.95129 6 8.64531 5.545 8.29863 4.85133C8.29531 4.84531 7.99996 4.24332 7.99996 3.66668C7.99996 3.48269 7.85098 3.33336 7.66664 3.33336V2.66668Z" fill="white" fill-opacity="0.8"/>
<path d="M2.33339 16H2.00007C1.81573 16 1.66675 16.1493 1.66675 16.3333C1.66675 16.5173 1.81573 16.6666 2.00007 16.6666H2.33339C2.51772 16.6666 2.66671 16.5173 2.66671 16.3333C2.66671 16.1493 2.51772 16 2.33339 16Z" fill="white" fill-opacity="0.8"/>
<path d="M9.00007 3.33333H9.33339C9.51772 3.33333 9.66671 3.18399 9.66671 3.00001C9.66671 2.81602 9.51772 2.66669 9.33339 2.66669H9.00007C8.81573 2.66669 8.66675 2.81602 8.66675 3.00001C8.66675 3.18399 8.81573 3.33333 9.00007 3.33333Z" fill="white" fill-opacity="0.8"/>
<path d="M10.6666 3.33333H10.9999C11.1842 3.33333 11.3332 3.18399 11.3332 3.00001C11.3332 2.81602 11.1842 2.66669 10.9999 2.66669H10.6666C10.4822 2.66669 10.3333 2.81602 10.3333 3.00001C10.3333 3.18399 10.4822 3.33333 10.6666 3.33333Z" fill="white" fill-opacity="0.8"/>
<path d="M13.631 13.378L11.2797 12.0207C11.3114 11.907 11.3334 11.79 11.3334 11.6667C11.3334 11.0473 10.907 10.5297 10.3334 10.3807V7.66668C10.3334 7.48269 10.1844 7.33336 10 7.33336C9.8157 7.33336 9.66671 7.48269 9.66671 7.66668V10.3807C9.09304 10.5296 8.66671 11.0473 8.66671 11.6667C8.66671 11.79 8.68871 11.907 8.72039 12.0204L6.36906 13.378C6.20972 13.47 6.15507 13.674 6.24707 13.8334C6.30906 13.9404 6.42105 14 6.53605 14C6.59273 14 6.65003 13.9857 6.70238 13.9554L9.05003 12.6C9.29203 12.8464 9.62835 13 10 13C10.3717 13 10.7077 12.8464 10.95 12.6L13.2977 13.9554C13.35 13.9857 13.4073 14 13.464 14C13.579 14 13.691 13.9404 13.753 13.8334C13.845 13.6737 13.7903 13.47 13.631 13.378ZM9.99999 12.3333C9.63234 12.3333 9.33331 12.0343 9.33331 11.6666C9.33331 11.2989 9.63234 11 9.99999 11C10.3677 11 10.6667 11.299 10.6667 11.6667C10.6667 12.0344 10.3677 12.3333 9.99999 12.3333Z" fill="white" fill-opacity="0.8"/>
<path d="M3.99989 16H3.66657C3.48224 16 3.33325 16.1493 3.33325 16.3333C3.33325 16.5173 3.48224 16.6666 3.66657 16.6666H3.99989C4.18423 16.6666 4.33321 16.5173 4.33321 16.3333C4.33321 16.1493 4.18423 16 3.99989 16Z" fill="white" fill-opacity="0.8"/>
<path d="M17.9999 16H17.6666C17.4822 16 17.3333 16.1493 17.3333 16.3333C17.3333 16.5173 17.4822 16.6666 17.6666 16.6666H17.9999C18.1842 16.6666 18.3332 16.5173 18.3332 16.3333C18.3332 16.1493 18.1842 16 17.9999 16Z" fill="white" fill-opacity="0.8"/>
<path d="M5.66668 15.423V15.3333C5.66668 14.2303 4.76969 13.3333 3.66668 13.3333H2.33332C1.23031 13.3333 0.33332 14.2303 0.33332 15.3333V15.423C0.133984 15.5383 0 15.7537 0 16V16.6667C0 16.918 0.14 17.1377 0.346016 17.251C0.409687 17.8917 0.688359 18.4557 0.70168 18.4823C1.00398 19.0867 1.46066 20 3 20C4.53934 20 4.99602 19.0867 5.29832 18.4823C5.31164 18.4557 5.59031 17.8917 5.65398 17.251C5.86 17.1377 6 16.918 6 16.6667V16C6 15.7537 5.86602 15.5383 5.66668 15.423ZM5.33332 16.6667C5.14898 16.6667 5 16.816 5 17C5 17.5767 4.70465 18.1787 4.70168 18.1843C4.35469 18.8783 4.04867 19.3333 3 19.3333C1.95133 19.3333 1.64535 18.8783 1.29867 18.1846C1.29535 18.1786 1 17.5766 1 17C1 16.816 0.851016 16.6666 0.66668 16.6666V16C0.851016 16 1 15.8507 1 15.6667V15.3334C1 14.598 1.59801 14 2.33332 14H3.66664C4.40199 14 4.99996 14.598 4.99996 15.3334V15.6667C4.99996 15.8507 5.14895 16 5.33328 16V16.6667H5.33332Z" fill="white" fill-opacity="0.8"/>
<path d="M16.3334 16H16.0001C15.8157 16 15.6667 16.1493 15.6667 16.3333C15.6667 16.5173 15.8157 16.6666 16.0001 16.6666H16.3334C16.5177 16.6666 16.6667 16.5173 16.6667 16.3333C16.6667 16.1493 16.5177 16 16.3334 16Z" fill="white" fill-opacity="0.8"/>
</g>
<defs>
<clipPath id="clip0_2036_1509">
<rect width="20" height="20" fill="white"/>
</clipPath>
</defs>
</svg>
