<!DOCTYPE svg PUBLIC "-//W3C//DTD SVG 1.1//EN" "http://www.w3.org/Graphics/SVG/1.1/DTD/svg11.dtd">

<!-- Uploaded to: SVG Repo, www.svgrepo.com, Transformed by: SVG Repo Mixer Tools -->
<svg version="1.1" id="_x32_" xmlns="http://www.w3.org/2000/svg" xmlns:xlink="http://www.w3.org/1999/xlink" width="20px" height="20px" viewBox="0 0 512 512" xml:space="preserve" fill="#ffffff">

<g id="SVGRepo_bgCarrier" stroke-width="0"/>

<g id="SVGRepo_tracerCarrier" stroke-linecap="round" stroke-linejoin="round"/>

<g id="SVGRepo_iconCarrier"> <style type="text/css">  .st0{fill:#ffffff;}  </style> <g> <path class="st0" d="M494.422,238.219v-72.281c-0.016-34.063-23.641-62.5-55.422-70.063c-3.063-37-33.969-66.125-71.781-66.125 H108.156C53.984,29.766,9.297,69.594,1.406,121.547H0v16.359v42.125v194.063c0.016,59.75,48.422,108.156,108.156,108.156h314.125 c39.844,0,72.125-32.281,72.141-72.141v-45.672c10.141-2.891,17.563-12.109,17.578-23.156v-79.875 C511.984,250.344,504.563,241.125,494.422,238.219z M470.219,410.109c-0.016,13.266-5.344,25.172-14.047,33.891 c-8.703,8.688-20.609,14.031-33.891,14.031H108.156c-23.219,0-44.125-9.375-59.359-24.578 c-15.203-15.234-24.578-36.141-24.578-59.359V180.031v-41.156l0.203-4.688c1.953-44.625,38.641-80.25,83.734-80.219h259.063 c23.719-0.016,43.328,17.219,47.156,39.844H65.938c-6.688,0-12.125,5.406-12.125,12.094s5.438,12.109,12.125,12.109h357.828 l2.484,0.203c24.594,2.031,43.969,22.609,43.969,47.719v71.25H358.406c-17.688,0-33.766,7.203-45.344,18.781l-0.016,0.016 c-11.578,11.578-18.797,27.656-18.766,45.359c-0.031,17.688,7.188,33.75,18.781,45.344l0,0 c11.578,11.594,27.656,18.797,45.344,18.781h111.813V410.109z M487.781,341.266H358.406c-11.141-0.016-20.875-4.406-28.219-11.703 c-7.313-7.344-11.688-17.094-11.703-28.219c0.016-11.141,4.391-20.891,11.703-28.25l-0.094,0.094l0.078-0.094h0.016 c7.344-7.281,17.078-11.656,28.219-11.688h129.375V341.266z"/> <path class="st0" d="M341.969,301.344c0,9.578,7.75,17.344,17.344,17.344c9.563,0,17.344-7.766,17.344-17.344 c0-9.594-7.781-17.359-17.344-17.359C349.719,283.984,341.969,291.75,341.969,301.344z"/> </g> </g>

</svg>