<!DOCTYPE svg PUBLIC "-//W3C//DTD SVG 1.1//EN" "http://www.w3.org/Graphics/SVG/1.1/DTD/svg11.dtd">

<!-- Uploaded to: SVG Repo, www.svgrepo.com, Transformed by: SVG Repo Mixer Tools -->
<svg fill="#ffffff" height="25px" width="25px" version="1.0" id="Layer_1" xmlns="http://www.w3.org/2000/svg" xmlns:xlink="http://www.w3.org/1999/xlink" viewBox="0 0 24.00 24.00" enable-background="new 0 0 24 24" xml:space="preserve" stroke="#ffffff" stroke-width="0.00024000000000000003">

<g id="SVGRepo_bgCarrier" stroke-width="0"/>

<g id="SVGRepo_tracerCarrier" stroke-linecap="round" stroke-linejoin="round" stroke="#CCCCCC" stroke-width="0.096"/>

<g id="SVGRepo_iconCarrier"> <g> <path d="M11.5,14c-0.3,0-0.5-0.2-0.5-0.5s0.2-0.5,0.5-0.5h1c0.3,0,0.5-0.2,0.5-0.5S12.8,12,12.5,12H12v-0.5c0-0.3-0.2-0.5-0.5-0.5 S11,11.2,11,11.5v0.6c-0.6,0.2-1,0.8-1,1.4c0,0.8,0.7,1.5,1.5,1.5c0.3,0,0.5,0.2,0.5,0.5S11.8,16,11.5,16h-1 c-0.3,0-0.5,0.2-0.5,0.5s0.2,0.5,0.5,0.5H11v0.5c0,0.3,0.2,0.5,0.5,0.5s0.5-0.2,0.5-0.5v-0.6c0.6-0.2,1-0.8,1-1.4 C13,14.7,12.3,14,11.5,14z"/> <path d="M21,18c-0.8,0-1.6,0.4-2.2,0.9l-2.5-1.7c0.4-0.8,0.7-1.7,0.7-2.7c0-0.6-0.1-1.2-0.3-1.8l1.8-0.8c0.5,0.6,1.2,1.1,2,1.1 c1.4,0,2.5-1.1,2.5-2.5S21.9,8,20.5,8c-0.1,0-0.3,0-0.4,0l-0.6-1.4C19.8,6.3,20,5.9,20,5.5C20,4.7,19.3,4,18.5,4S17,4.7,17,5.5 S17.7,7,18.5,7c0,0,0.1,0,0.1,0l0.6,1.4C18.5,8.9,18,9.6,18,10.5c0,0.2,0,0.4,0.1,0.5l-1.8,0.8C15.4,10.1,13.6,9,11.5,9 C10,9,8.7,9.6,7.7,10.5L6.4,9.4C6.8,8.9,7,8.2,7,7.5c0-0.6-0.2-1.1-0.4-1.6l2.2-1.6C9.2,4.7,9.8,5,10.5,5c1.3,0,2.4-1.1,2.5-2.4 l2.2-0.4C15.4,2.7,15.9,3,16.5,3C17.3,3,18,2.3,18,1.5S17.3,0,16.5,0c-0.7,0-1.3,0.5-1.5,1.2l-2.2,0.4C12.5,0.7,11.6,0,10.5,0 C9.1,0,8,1.1,8,2.5c0,0.4,0.1,0.7,0.2,1L6,5.1C5.4,4.4,4.5,4,3.5,4C1.6,4,0,5.6,0,7.5S1.6,11,3.5,11c0.9,0,1.7-0.3,2.3-0.9l1.3,1.1 c-0.7,0.9-1.1,2-1.1,3.2c0,1.1,0.3,2,0.8,2.9l-1.7,1.3c-0.4-0.4-1-0.6-1.7-0.6C2.1,18,1,19.1,1,20.5S2.1,23,3.5,23S6,21.9,6,20.5 c0-0.4-0.1-0.7-0.2-1.1l1.7-1.3c1,1.1,2.5,1.8,4.1,1.8c1.7,0,3.2-0.8,4.2-2l2.5,1.7C18.1,20.1,18,20.6,18,21c0,1.7,1.3,3,3,3 s3-1.3,3-3S22.7,18,21,18z M18,5.5C18,5.2,18.2,5,18.5,5S19,5.2,19,5.5S18.8,6,18.5,6S18,5.8,18,5.5z M20.5,9 c0.8,0,1.5,0.7,1.5,1.5S21.3,12,20.5,12S19,11.3,19,10.5S19.7,9,20.5,9z M16.5,1C16.8,1,17,1.2,17,1.5S16.8,2,16.5,2S16,1.8,16,1.5 S16.2,1,16.5,1z M10.5,1C11.3,1,12,1.7,12,2.5S11.3,4,10.5,4S9,3.3,9,2.5S9.7,1,10.5,1z M3.5,22C2.7,22,2,21.3,2,20.5 S2.7,19,3.5,19S5,19.7,5,20.5S4.3,22,3.5,22z M3.5,10C2.1,10,1,8.9,1,7.5S2.1,5,3.5,5S6,6.1,6,7.5S4.9,10,3.5,10z M11.5,19 C9,19,7,17,7,14.5S9,10,11.5,10s4.5,2,4.5,4.5S14,19,11.5,19z M21,23c-1.1,0-2-0.9-2-2s0.9-2,2-2s2,0.9,2,2S22.1,23,21,23z"/> </g> </g>

</svg>