<svg width="20" height="20" viewBox="0 0 20 20" fill="none" xmlns="http://www.w3.org/2000/svg">
<path d="M0.527432 3.78125C0.367432 3.62125 0.289307 3.41812 0.289307 3.17187C0.289307 2.92562 0.367432 2.7225 0.527432 2.5625C0.687432 2.4025 0.890557 2.32437 1.13681 2.32437H18.9568C19.2031 2.32437 19.4062 2.4025 19.5662 2.5625C19.7262 2.7225 19.8043 2.92562 19.8043 3.17187C19.8043 3.41812 19.7262 3.62125 19.5662 3.78125C19.4062 3.94125 19.2031 4.01937 18.9568 4.01937H1.13681C0.890557 4.01937 0.687432 3.94125 0.527432 3.78125ZM19.5662 9.35187C19.7262 9.51187 19.8043 9.715 19.8043 9.96125C19.8043 10.2075 19.7262 10.4106 19.5662 10.5706C19.4062 10.7306 19.2031 10.8087 18.9568 10.8087H1.13681C0.890557 10.8087 0.687432 10.7306 0.527432 10.5706C0.367432 10.4106 0.289307 10.2075 0.289307 9.96125C0.289307 9.715 0.367432 9.51187 0.527432 9.35187C0.687432 9.19187 0.890557 9.11375 1.13681 9.11375H18.9568C19.2031 9.11375 19.4062 9.19187 19.5662 9.35187ZM19.5662 16.1369C19.7262 16.2969 19.8043 16.5 19.8043 16.7462C19.8043 16.9925 19.7262 17.1956 19.5662 17.3556C19.4062 17.5156 19.2031 17.5937 18.9568 17.5937H1.13681C0.890557 17.5937 0.687432 17.5156 0.527432 17.3556C0.367432 17.1956 0.289307 16.9925 0.289307 16.7462C0.289307 16.5 0.367432 16.2969 0.527432 16.1369C0.687432 15.9769 0.890557 15.8987 1.13681 15.8987H18.9568C19.2031 15.8987 19.4062 15.9806 19.5662 16.1369Z" fill="white" fill-opacity="0.8" stroke="white" stroke-opacity="0.8" stroke-width="0.00064"/>
</svg>
