<svg width="20" height="20" viewBox="0 0 20 20" fill="none" xmlns="http://www.w3.org/2000/svg">
<path d="M14.358 17.6605L14.3544 17.6583L11.0127 15.675L10.919 15.6194L10.81 15.6168C10.4725 15.6087 10.1405 15.5847 9.82854 15.5379L9.82779 15.5378C9.74919 15.5262 9.68421 15.4747 9.65562 15.4004C9.62779 15.328 9.64011 15.256 9.69142 15.1961C10.305 14.4803 10.6251 13.6178 10.6251 12.7C10.6251 10.423 8.63208 8.62497 6.25006 8.62497C5.35829 8.62497 4.49567 8.87046 3.76602 9.34975C3.7026 9.38925 3.62921 9.39481 3.56012 9.36429C3.48969 9.32939 3.44674 9.26545 3.43913 9.20341C3.4153 8.9805 3.40007 8.76342 3.40007 8.54166C3.40007 4.66315 6.77134 1.46667 10.9667 1.46667C15.1621 1.46667 18.5334 4.66315 18.5334 8.54166C18.5334 10.6738 17.5476 12.6372 15.7958 13.9866L15.6071 14.1319L15.6366 14.3683L15.9196 16.632C15.9196 16.6325 15.9197 16.633 15.9198 16.6335C15.9674 17.0427 15.7893 17.4204 15.4489 17.6417C15.2805 17.7498 15.0836 17.8083 14.8917 17.8083C14.7058 17.8083 14.5229 17.7606 14.358 17.6605ZM10.5857 14.5886L10.2587 15.2427L10.9881 15.1906C11.0052 15.1894 11.0312 15.1937 11.0606 15.2134L11.0696 15.2194L11.0789 15.2249L14.5663 17.2973C14.6817 17.369 14.8112 17.4025 14.9429 17.3912C15.0658 17.3807 15.1614 17.3338 15.2247 17.2926C15.3615 17.2061 15.5485 16.9995 15.5049 16.6792L15.1808 14.053C15.1725 13.9674 15.2092 13.8908 15.268 13.8469C17.0703 12.5819 18.1167 10.6423 18.1167 8.52498C18.1167 4.82416 14.8834 1.86665 10.9667 1.86665C7.1975 1.86665 4.05877 4.61258 3.82597 8.12244L3.78274 8.77422L4.392 8.53865C4.97083 8.31483 5.59498 8.19168 6.24173 8.19168C8.91019 8.19168 11.0334 10.228 11.0334 12.6833H11.0334L11.0334 12.688C11.041 13.3508 10.883 13.994 10.5857 14.5886Z" fill="#D2D2D2" stroke="#D2D2D2" stroke-width="0.833333"/>
<path d="M3.42742 18.4261L3.42551 18.4248C3.18284 18.2684 3.05778 18.0061 3.0885 17.725L3.25468 16.4454L3.28456 16.2153L3.10468 16.0687C2.07253 15.2277 1.46647 13.986 1.46647 12.6917C1.46647 11.2152 2.23848 9.82828 3.54878 8.99306L3.54879 8.99308L3.55201 8.99098C4.34123 8.47761 5.27865 8.20007 6.25814 8.20007C8.9266 8.20007 11.0498 10.2364 11.0498 12.6917C11.0498 13.6911 10.6861 14.6788 10.0163 15.4627L10.0163 15.4627L10.0117 15.4683C9.15105 16.5117 7.85791 17.1289 6.41971 17.1752L6.3125 17.1787L6.22028 17.2335L4.18784 18.4413C4.18768 18.4414 4.18752 18.4415 4.18737 18.4416C4.07174 18.5098 3.94576 18.5417 3.81648 18.5417C3.67827 18.5417 3.54943 18.5056 3.42742 18.4261ZM4.1543 17.9666L6.14308 16.785C6.14349 16.7847 6.14389 16.7845 6.14429 16.7843C6.19145 16.757 6.22768 16.75 6.24981 16.75C7.58905 16.75 8.86809 16.1772 9.6864 15.1837C10.295 14.4635 10.6248 13.6035 10.6248 12.6834C10.6248 10.4141 8.63117 8.61673 6.24981 8.61673C5.35756 8.61673 4.49446 8.86244 3.76453 9.34226C2.58777 10.0971 1.87481 11.3411 1.87481 12.6917C1.87481 13.9923 2.51324 15.1765 3.62119 15.9345C3.68324 15.9781 3.71873 16.0515 3.71085 16.1356L3.52821 17.5552L3.41909 18.4034L4.1543 17.9666Z" fill="#D2D2D2" stroke="#D2D2D2" stroke-width="0.833333"/>
</svg>
