<svg width="20" height="20" viewBox="0 0 20 20" fill="none" xmlns="http://www.w3.org/2000/svg">
<path d="M11.6667 10.2083C11.0486 10.2083 10.4445 10.0251 9.93056 9.68167C9.41664 9.33834 9.01614 8.85025 8.77964 8.27922C8.54306 7.7082 8.48123 7.07987 8.60181 6.47368C8.72239 5.86749 9.01998 5.31067 9.45706 4.87363C9.89406 4.43659 10.4509 4.13896 11.0571 4.01839C11.6632 3.8978 12.2916 3.95969 12.8626 4.19621C13.4336 4.43274 13.9217 4.83328 14.2651 5.34718C14.6085 5.86109 14.7917 6.46527 14.7917 7.08334C14.7917 7.91214 14.4625 8.707 13.8765 9.29309C13.2904 9.87909 12.4956 10.2083 11.6667 10.2083ZM11.6667 5.20834C11.2959 5.20834 10.9334 5.3183 10.6251 5.52433C10.3167 5.73036 10.0764 6.0232 9.93448 6.3658C9.79256 6.70842 9.75539 7.08542 9.82773 7.44913C9.90014 7.81284 10.0786 8.14694 10.3409 8.40917C10.6031 8.67142 10.9372 8.85 11.3009 8.92234C11.6646 8.99467 12.0416 8.9575 12.3842 8.81559C12.7269 8.67367 13.0197 8.43334 13.2257 8.12503C13.4317 7.81669 13.5417 7.45418 13.5417 7.08334C13.5417 6.58605 13.3441 6.10915 12.9926 5.75751C12.6409 5.40588 12.164 5.20834 11.6667 5.20834Z" fill="white"/>
<path d="M17.4999 16.0417C17.3348 16.0395 17.1771 15.973 17.0603 15.8563C16.9436 15.7395 16.8771 15.5818 16.8749 15.4167C16.8749 13.7917 15.9916 12.7083 11.6666 12.7083C7.34159 12.7083 6.45825 13.7917 6.45825 15.4167C6.45825 15.5824 6.3924 15.7414 6.27519 15.8586C6.15799 15.9758 5.99901 16.0417 5.83325 16.0417C5.66749 16.0417 5.50852 15.9758 5.39131 15.8586C5.2741 15.7414 5.20825 15.5824 5.20825 15.4167C5.20825 11.4583 9.73325 11.4583 11.6666 11.4583C13.5999 11.4583 18.1249 11.4583 18.1249 15.4167C18.1228 15.5818 18.0563 15.7395 17.9395 15.8563C17.8228 15.973 17.665 16.0395 17.4999 16.0417Z" fill="white"/>
<path d="M6.93339 10.8833H6.66672C6.00368 10.8192 5.39326 10.4944 4.96974 9.98025C4.54622 9.46608 4.3443 8.80475 4.40839 8.14167C4.47249 7.47863 4.79735 6.86822 5.31151 6.44469C5.82567 6.02117 6.48701 5.81925 7.15006 5.88334C7.23507 5.887 7.31845 5.90797 7.39507 5.94499C7.4717 5.982 7.53996 6.03427 7.59566 6.09859C7.65137 6.16292 7.69336 6.23794 7.71905 6.31907C7.74475 6.40019 7.7536 6.48571 7.74508 6.57037C7.73655 6.65504 7.71083 6.73707 7.66949 6.81145C7.62814 6.88582 7.57204 6.95097 7.50463 7.0029C7.43721 7.05482 7.3599 7.09244 7.27745 7.11344C7.19498 7.13444 7.1091 7.13837 7.02505 7.12501C6.86239 7.10879 6.69811 7.12552 6.54205 7.1742C6.38598 7.22288 6.24133 7.30252 6.11672 7.40834C5.99016 7.51043 5.8852 7.63669 5.80794 7.77977C5.73067 7.92284 5.68267 8.07986 5.66672 8.24167C5.6495 8.4055 5.66504 8.57117 5.71246 8.72892C5.75988 8.88675 5.83823 9.0335 5.94293 9.16067C6.04764 9.28792 6.17661 9.393 6.32234 9.46983C6.46806 9.54667 6.62762 9.59375 6.79172 9.60833C7.06301 9.63158 7.3346 9.56733 7.56672 9.425C7.70817 9.33775 7.87851 9.31017 8.04026 9.3485C8.20201 9.38675 8.3419 9.48775 8.42923 9.62917C8.51656 9.77067 8.54406 9.941 8.50581 10.1027C8.46748 10.2645 8.36648 10.4044 8.22506 10.4917C7.83856 10.7382 7.39171 10.8737 6.93339 10.8833Z" fill="white"/>
<path d="M2.5 15.4167C2.33491 15.4145 2.17719 15.348 2.06044 15.2312C1.9437 15.1145 1.87716 14.9567 1.875 14.7917C1.875 12.5417 2.475 11.0417 5.41667 11.0417C5.58242 11.0417 5.7414 11.1075 5.85861 11.2247C5.97582 11.3419 6.04167 11.5009 6.04167 11.6667C6.04167 11.8324 5.97582 11.9914 5.85861 12.1086C5.7414 12.2258 5.58242 12.2917 5.41667 12.2917C3.45833 12.2917 3.125 12.9167 3.125 14.7917C3.12284 14.9567 3.0563 15.1145 2.93956 15.2312C2.82281 15.348 2.66509 15.4145 2.5 15.4167Z" fill="white"/>
</svg>
