<svg width="20" height="20" viewBox="0 0 20 20" fill="none" xmlns="http://www.w3.org/2000/svg">
<g clip-path="url(#clip0_2036_1527)">
<path d="M3.0316 17.5H5.09336C5.38695 17.5 5.62496 17.262 5.62496 16.9684V12.3084C5.62496 12.0148 5.38691 11.7768 5.09336 11.7768H3.0316C2.73801 11.7768 2.5 12.0148 2.5 12.3084V16.9684C2.5 17.262 2.73805 17.5 3.0316 17.5Z" fill="white" fill-opacity="0.8"/>
<path d="M7.7191 17.5H9.78086C10.0745 17.5 10.3125 17.262 10.3125 16.9684V9.18337C10.3125 8.88977 10.0744 8.65176 9.78086 8.65176H7.7191C7.42551 8.65176 7.1875 8.88981 7.1875 9.18337V16.9684C7.1875 17.262 7.42555 17.5 7.7191 17.5Z" fill="white" fill-opacity="0.8"/>
<path d="M12.4066 17.5H14.4684C14.762 17.5 15 17.262 15 16.9684V5.43337C15 5.13977 14.7619 4.90176 14.4684 4.90176H12.4066C12.113 4.90176 11.875 5.13981 11.875 5.43337V16.9684C11.875 17.262 12.113 17.5 12.4066 17.5Z" fill="white" fill-opacity="0.8"/>
<path d="M17.0941 17.5H19.1559C19.4495 17.5 19.6875 17.262 19.6875 16.9684V1.68337C19.6875 1.38977 19.4494 1.15176 19.1559 1.15176H17.0941C16.8005 1.15176 16.5625 1.38981 16.5625 1.68337V16.9684C16.5625 17.262 16.8005 17.5 17.0941 17.5Z" fill="white" fill-opacity="0.8"/>
<path d="M19.4684 18.8281H1.7816C1.48805 18.8281 1.25 18.5901 1.25 18.2965V0.531602C1.25 0.238047 1.01195 0 0.718398 0H0.531641C0.238047 0 0 0.238047 0 0.531602V19.4684C0 19.762 0.238047 20 0.531602 20H19.4684C19.762 20 20 19.762 20 19.4684V19.3598C20 19.0662 19.762 18.8281 19.4684 18.8281Z" fill="white" fill-opacity="0.8"/>
</g>
<defs>
<clipPath id="clip0_2036_1527">
<rect width="20" height="20" fill="white"/>
</clipPath>
</defs>
</svg>
